HIERARCHY
ROOT Hips
{
	OFFSET 0.00000 0.00000 0.00000
	CHANNELS 6 Xposition Yposition Zposition Yrotation Zrotation Xrotation 
	JOINT Lumbar
	{
		OFFSET 0 0 0
		CHANNELS 3 Zrotation Xrotation Yrotation
		JOINT Neck
		{
			OFFSET 0.00 0.2701 0.00
			CHANNELS 3 Zrotation Xrotation Yrotation
			End Site
			{
				OFFSET 0.00 0.1379 0.00
			}
		}
		JOINT RightShoulder
		{
			OFFSET 0.0119 0.2289 0.1181
			CHANNELS 3 Zrotation Xrotation Yrotation
			JOINT RightElbow
			{
				OFFSET 0.00 -0.1475 0.00
				CHANNELS 2 Zrotation Yrotation
				JOINT RightWrist
				{
					OFFSET 0.00 -0.1605 0.00
					CHANNELS 2 Zrotation Xrotation
					End Site
					{
						OFFSET 0.0040 -0.1068 0.0006
					}
				}
			}
		}
		JOINT LeftShoulder
		{
			OFFSET 0.0119 0.2289 -0.1181
			CHANNELS 3 Zrotation Xrotation Yrotation
			JOINT LeftElbow
			{
				OFFSET 0.00 -0.1475 0.00
				CHANNELS 2 Zrotation Yrotation
				JOINT LeftWrist
				{
					OFFSET 0.00 -0.1605 0.00
					CHANNELS 2 Zrotation Xrotation
					End Site
					{
						OFFSET 0.0040 -0.1068 -0.0006
					}
				}
			}
		}
	}
	JOINT RightHip
	{
		OFFSET 0.0316 -0.0424 0.0458
		CHANNELS 3 Zrotation Xrotation Yrotation
		JOINT RightKnee
		{
			OFFSET 0.00 -0.2438 0.00
			CHANNELS 1 Zrotation
			JOINT RightAnkle
			{
				OFFSET 0.00 -0.2449 0.00
				CHANNELS 3 Zrotation Xrotation Yrotation
				End Site
				{
					OFFSET 0.1237 -0.0542 0.0051
				}
			}
		}
	}
	JOINT LeftHip
	{
		OFFSET 0.0316 -0.0424 -0.0458
		CHANNELS 3 Zrotation Xrotation Yrotation
		JOINT LeftKnee
		{
			OFFSET 0.00 -0.2438 0.00
			CHANNELS 1 Zrotation
			JOINT LeftAnkle
			{
				OFFSET 0.00 -0.2449 0.00
				CHANNELS 3 Zrotation Xrotation Yrotation
				End Site
				{
					OFFSET 0.1237 -0.0542 -0.0051
				}
			}
		}
	}
}
MOTION
Frames: 25
Frame Time: 0.02
-1.42889 0.58466 0.08447 1253.15222 0 2.21435 -0.34055 0.34043 1.54015 -24.60765 -7.5951 -4.18253 11.37553 -7.0288 0.54605 113.0901 66.46254 -13.70999 1.31866 9.86427 23.58427 -7.3051 100.03228 -82.33177 -44.70247 3.10217 5.64088 4.59308 23.06561 -23.94848 11.31014 -6.97599 -7.53822 2.97336 -3.61682 -4.72425 -19.64276 9.67478 7.46089 10.83926
-1.42889 0.58468 0.08459 1252.9871 0 2.20682 -0.24286 0.37805 1.48093 -24.88034 -7.44663 -4.13359 11.03094 -7.50333 1.92072 117.3429 70.07349 -15.07469 0.37666 10.03931 23.44693 -7.34463 100.04944 -82.37547 -44.59385 3.1071 5.62449 4.5653 23.10252 -23.87256 11.32182 -6.90428 -7.40787 2.92951 -3.62532 -4.66148 -19.6007 9.66552 7.47574 10.92175
-1.42887 0.58472 0.08469 1252.79937 0 2.19681 -0.14085 0.37858 1.41445 -25.19658 -7.12868 -3.98363 10.98133 -8.23767 3.4144 121.28275 74.3646 -16.67104 -0.59785 10.31227 23.08142 -7.47553 99.9911 -82.57628 -44.46668 3.12684 5.60288 4.53459 23.13271 -23.77335 11.32978 -6.81306 -7.24859 2.87526 -3.62943 -4.59475 -19.54057 9.64795 7.48796 11.01963
-1.42886 0.58475 0.08481 1252.62387 0 2.18739 -0.0405 0.39446 1.3506 -25.49369 -6.88448 -3.87646 10.87374 -8.85216 4.88844 125.25766 78.46598 -18.30118 -1.56241 10.54412 22.81373 -7.56911 99.96753 -82.70814 -44.34732 3.1405 5.58443 4.50614 23.16656 -23.6866 11.33865 -6.73171 -7.10477 2.82751 -3.63532 -4.53049 -19.49126 9.63474 7.50156 11.10981
-1.42886 0.58478 0.08491 1252.43965 0 2.18012 0.05782 0.41667 1.28762 -25.7906 -6.64961 -3.78048 10.45636 -9.48207 6.23377 129.69741 82.09427 -19.37959 -2.51211 10.76376 22.56587 -7.64508 99.93937 -82.83106 -44.23073 3.15168 5.56238 4.47379 23.1979 -23.5907 11.35043 -6.64567 -6.95063 2.77231 -3.64185 -4.46334 -19.43066 9.61884 7.51432 11.20313
-1.42884 0.58482 0.08503 1252.26862 0 2.16803 0.16153 0.41683 1.22192 -26.09672 -6.35732 -3.6379 10.74294 -10.13706 7.8597 133.09211 86.83434 -21.62513 -3.49727 11.03065 22.22505 -7.77951 99.9041 -83.00945 -44.10374 3.17134 5.54698 4.44871 23.23276 -23.50936 11.35564 -6.5651 -6.81144 2.73012 -3.64635 -4.40131 -19.38918 9.60657 7.52814 11.29333
-1.42879 0.58486 0.0852 1252.13739 0 2.14117 0.28088 0.36597 1.14972 -26.42425 -5.94137 -3.39249 12.98722 -10.81573 10.34702 133.6481 94.76629 -27.32848 -4.58522 11.41176 21.67598 -8.05138 99.86475 -83.30114 -43.95488 3.21189 5.54832 4.44627 23.27981 -23.46805 11.34121 -6.50263 -6.719 2.72689 -3.64366 -4.35439 -19.40753 9.60737 7.54663 11.37308
-1.42874 0.5849 0.0854 1252.02096 0 2.1101 0.40521 0.29401 1.07549 -26.75786 -5.47545 -3.10402 15.91268 -11.50636 13.09039 133.16609 103.73917 -34.14337 -5.70421 11.83528 21.04355 -8.37912 99.82184 -83.64286 -43.79596 3.26021 5.55746 4.45083 23.33023 -23.44419 11.32096 -6.44678 -6.64289 2.73708 -3.63975 -4.31304 -19.44533 9.61193 7.56604 11.44863
-1.42869 0.58494 0.0856 1251.89881 0 2.0821 0.52635 0.23131 1.00287 -27.08429 -5.03704 -2.83446 18.47007 -12.17887 15.63955 133.1771 112.04591 -40.25613 -6.80068 12.23431 20.45426 -8.68238 99.78271 -83.96294 -43.63991 3.30426 5.56446 4.45111 23.37888 -23.41527 11.30471 -6.389 -6.56052 2.7407 -3.63792 -4.26882 -19.47259 9.61419 7.58446 11.52505
-1.42865 0.58498 0.08577 1251.77036 0 2.04845 0.65194 0.16898 0.92684 -27.43165 -4.57159 -2.56299 21.28704 -12.91434 18.52073 133.08942 121.19187 -47.20628 -7.93611 12.65936 19.8333 -8.98525 99.73141 -84.28566 -43.48963 3.35202 5.56379 4.45633 23.42935 -23.37011 11.28177 -6.32567 -6.47253 2.74567 -3.62877 -4.22478 -19.5064 9.61879 7.6055 11.6071
-1.42859 0.58501 0.086 1251.66044 0 2.02644 0.7689 0.10098 0.85779 -27.73541 -4.15381 -2.28798 23.71848 -13.51784 20.77073 132.96252 128.82787 -52.67633 -8.99452 13.03831 19.2633 -9.30067 99.70608 -84.61051 -43.32615 3.39359 5.58295 4.45248 23.47561 -23.36735 11.27249 -6.27613 -6.40013 2.75149 -3.63554 -4.18311 -19.5314 9.61937 7.62097 11.67535
-1.42851 0.58503 0.08642 1251.58527 0 2.03086 0.86473 0.02553 0.80661 -27.92418 -3.87243 -2.00252 24.94066 -13.75427 21.20363 133.00111 132.03708 -53.75762 -9.85645 13.28489 18.84045 -9.63974 99.74984 -84.94678 -43.12032 3.41714 5.63942 4.4254 23.52 -23.44453 11.29336 -6.259 -6.36941 2.7536 -3.67945 -4.13501 -19.52762 9.60908 7.6236 11.71315
-1.42842 0.58503 0.0869 1251.53128 0 2.04874 0.95084 -0.05559 0.76294 -28.06721 -3.64299 -1.71759 25.74587 -13.85598 20.99374 133.03376 133.68745 -53.3154 -10.63527 13.48211 18.47563 -9.98863 99.82109 -85.27914 -42.90309 3.4339 5.71927 4.38801 23.55763 -23.57149 11.32994 -6.25597 -6.35296 2.75676 -3.74103 -4.09125 -19.51432 9.5944 7.61989 11.73539
-1.42833 0.58503 0.08736 1251.47545 0 2.06444 1.0389 -0.1355 0.71716 -28.22661 -3.39555 -1.44027 26.72588 -14.01799 21.08546 133.05779 136.05018 -53.58893 -11.43626 13.69798 18.09443 -10.3307 99.88221 -85.60116 -42.69676 3.45308 5.79761 4.35341 23.59204 -23.6955 11.36514 -6.24977 -6.32906 2.76115 -3.79892 -4.05321 -19.50531 9.58107 7.61753 11.76095
-1.42828 0.58505 0.08778 1251.38509 0 2.06199 1.13792 -0.2091 0.66585 -28.40547 -3.12263 -1.12823 27.79131 -14.18493 21.14732 133.09366 138.43452 -53.80252 -12.30387 13.93143 17.66759 -10.68439 99.93244 -85.97711 -42.46636 3.47547 5.8345 4.32823 23.65501 -23.73111 11.37554 -6.23177 -6.31189 2.75834 -3.83744 -3.98309 -19.49724 9.5708 7.62246 11.80426
-1.42814 0.58503 0.0883 1251.3742 0 2.10233 1.21126 -0.29857 0.62783 -28.53213 -2.91575 -0.8892 28.5716 -14.30886 21.11392 133.11647 140.38821 -53.76488 -13.01302 14.1159 17.35122 -11.01591 100.01286 -86.23796 -42.283 3.48931 5.96721 4.27941 23.65451 -23.96991 11.44176 -6.23953 -6.28124 2.77117 -3.92176 -3.9805 -19.48455 9.55283 7.6097 11.80441
-1.42783 0.5849 0.08907 1251.55539 0 2.24235 1.22018 -0.41579 0.62512 -28.53127 -2.87957 -0.85228 28.65504 -14.35151 20.98603 133.1143 141.53716 -53.39729 -13.29923 14.17708 17.32221 -11.27956 100.16222 -86.19165 -42.23715 3.48245 6.32428 4.18024 23.50242 -24.69361 11.65397 -6.33076 -6.22977 2.82226 -4.11743 -4.16629 -19.46278 9.51646 7.558 11.71091
-1.42744 0.58473 0.08993 1251.82052 0 2.42762 1.20284 -0.55114 0.63557 -28.47806 -2.90825 -0.88893 28.46361 -14.35482 20.78151 133.10244 142.29702 -52.82514 -13.42867 14.19017 17.40354 -11.52108 100.3424 -86.02773 -42.23834 3.46696 6.78328 4.05519 23.28403 -25.63176 11.92174 -6.4429 -6.15857 2.88995 -4.36038 -4.4198 -19.43639 9.47209 7.48702 11.57044
-1.42707 0.58457 0.09074 1252.06085 0 2.60238 1.19471 -0.68805 0.63956 -28.44565 -2.90664 -0.89173 28.40341 -14.37275 20.60279 133.09419 143.23228 -52.34731 -13.63483 14.22553 17.43701 -11.77518 100.51366 -85.91077 -42.2147 3.45454 7.21828 3.93391 23.07967 -26.51386 12.1681 -6.53711 -6.08567 2.95291 -4.58909 -4.63969 -19.41105 9.43027 7.41954 11.43734
-1.42676 0.58445 0.0916 1252.24294 0 2.73595 1.1975 -0.78495 0.64539 -28.42571 -2.9097 -0.89629 28.30659 -14.39873 20.43805 133.08919 144.13465 -51.81275 -13.8194 14.25869 17.46253 -12.0189 100.66478 -85.82035 -42.20461 3.44542 7.56018 3.84633 22.93702 -27.22368 12.40254 -6.67382 -6.066 3.00366 -4.78877 -4.86972 -19.38958 9.39312 7.37461 11.36289
-1.42631 0.58422 0.09237 1252.5693 0 2.96489 1.17173 -0.96799 0.651 -28.36618 -2.91847 -0.91463 28.2209 -14.40164 20.23669 133.07439 145.01476 -51.36568 -14.00728 14.28409 17.53039 -12.27896 100.86432 -85.64771 -42.17838 3.42756 8.11952 3.68216 22.65775 -28.34162 12.67011 -6.71872 -5.92094 3.08424 -5.05874 -5.09722 -19.35936 9.3441 7.27753 11.15509
-1.42553 0.5837 0.0929 1253.2473 0 3.45395 1.07172 -1.3961 0.6471 -28.22649 -2.92087 -0.95359 28.27613 -14.33965 19.93178 133.04575 146.08814 -51.22323 -14.29031 14.31409 17.68551 -12.58821 101.19451 -85.26868 -42.08939 3.38685 9.25501 3.31712 21.95464 -30.53879 13.05658 -6.57705 -5.52061 3.23947 -5.52055 -5.28072 -19.30436 9.26696 7.04687 10.59213
-1.42462 0.58308 0.09332 1254.07371 0 4.03533 0.94472 -1.90763 0.64319 -28.04676 -2.92765 -1.00401 28.34425 -14.25813 19.59734 133.00652 147.12736 -51.17544 -14.57381 14.33596 17.87978 -12.91456 101.57153 -84.81266 -41.98371 3.33786 10.60368 2.87592 21.12956 -33.13545 13.46739 -6.33092 -4.98121 3.42511 -6.04908 -5.4642 -19.24148 9.1778 6.76324 9.89615
-1.42376 0.58251 0.09376 1254.84756 0 4.56997 0.83074 -2.37383 0.64342 -27.87384 -2.93634 -1.04847 28.38265 -14.19384 19.29667 132.96417 148.08929 -51.09041 -14.82603 14.35188 18.05738 -13.23429 101.92391 -84.397 -41.89024 3.29318 11.85659 2.4658 20.39963 -35.54923 13.8393 -6.08252 -4.4456 3.59884 -6.54156 -5.65979 -19.18289 9.09227 6.50034 9.26044
-1.42289 0.58191 0.09433 1255.55604 0 5.12875 0.7108 -2.87375 0.62812 -27.74377 -2.93106 -1.09764 28.5194 -14.09442 18.91719 132.95168 149.44128 -50.99569 -15.20305 14.405 18.2335 -13.54965 102.29107 -83.95382 -41.77931 3.24574 13.1161 2.06643 19.49358 -37.98713 14.32809 -6.0359 -4.14945 3.76386 -7.06215 -5.80239 -19.11952 9.0137 6.25143 8.62483
